<svg width="40" height="40" viewBox="0 0 40 40" fill="none" xmlns="http://www.w3.org/2000/svg">
<path d="M13.3333 4.99999H14.9999C11.7499 14.7333 11.7499 25.2667 14.9999 35H13.3333M24.9999 4.99999C28.2499 14.7333 28.2499 25.2667 24.9999 35M4.99992 26.6667V25C14.7333 28.25 25.2666 28.25 34.9999 25V26.6667M4.99992 15C14.7333 11.75 25.2666 11.75 34.9999 15M36.6666 20C36.6666 29.2047 29.2047 36.6667 19.9999 36.6667C10.7952 36.6667 3.33325 29.2047 3.33325 20C3.33325 10.7952 10.7952 3.33333 19.9999 3.33333C29.2047 3.33333 36.6666 10.7952 36.6666 20Z" stroke="#2F80ED" stroke-width="3" stroke-linecap="round" stroke-linejoin="round"/>
</svg>
