<svg width="126" height="126" viewBox="0 0 126 126" fill="none" xmlns="http://www.w3.org/2000/svg">
<path d="M125.963 0H0.0369141C0.016527 0 0 0.016527 0 0.0369141V125.963C0 125.983 0.016527 126 0.0369141 126H125.963C125.983 126 126 125.983 126 125.963V0.0369141C126 0.016527 125.983 0 125.963 0Z" fill="#F7DF1E"/>
<path d="M79.7344 91.0547C82.1953 95.2383 85.6406 98.1914 91.3008 98.1914C96.2227 98.1914 99.4219 95.7305 99.4219 92.2852C99.4219 88.3477 96.2227 86.8711 90.8086 84.4102L87.8555 83.1797C79.2422 79.4883 73.582 75.0586 73.582 65.4609C73.582 56.6016 80.2266 49.7109 90.8086 49.7109C98.4375 49.7109 103.852 52.418 107.543 59.3086L98.4375 65.2148C96.4688 61.5234 94.2539 60.0469 90.8086 60.0469C87.3633 60.0469 85.1484 62.2617 85.1484 65.2148C85.1484 68.6602 87.3633 70.1367 92.5312 72.3516L95.4844 73.582C105.574 78.0117 111.234 82.1953 111.234 92.2852C111.234 102.867 102.867 108.773 91.5469 108.773C80.4727 108.773 73.3359 103.605 69.8906 96.7148L79.7344 91.0547ZM37.8984 92.0391C39.8672 95.2383 41.3438 98.1914 45.5273 98.1914C49.4648 98.1914 51.9258 96.7148 51.9258 90.8086V49.957H63.7383V90.3164C63.7383 102.621 56.6016 108.035 46.0195 108.035C36.4219 108.035 31.0078 103.113 28.3008 97.207L37.8984 92.0391Z" fill="black"/>
</svg>
