<svg width="125" height="125" viewBox="0 0 125 125" fill="none" xmlns="http://www.w3.org/2000/svg">
<path d="M62.4999 73.6771C68.6757 73.6771 73.6822 68.6706 73.6822 62.4948C73.6822 56.319 68.6757 51.3125 62.4999 51.3125C56.3241 51.3125 51.3176 56.319 51.3176 62.4948C51.3176 68.6706 56.3241 73.6771 62.4999 73.6771Z" fill="#53C1DE"/>
<path d="M23.5104 82.2969C24.6094 82.6615 25.7083 83.0313 26.8333 83.349C26.4688 84.8125 26.151 86.2552 25.8542 87.7448C23.2917 101.297 25.2917 112.036 31.6875 115.724C38.2813 119.531 49.3646 115.625 60.1563 106.177C61.0104 105.422 61.8646 104.641 62.7188 103.807C63.7917 104.859 64.9167 105.859 66.0365 106.833C76.4844 115.818 86.8125 119.453 93.1875 115.771C99.7813 111.964 101.927 100.417 99.1458 86.3542C98.9271 85.2813 98.6823 84.1823 98.4115 83.0573C99.1927 82.8386 99.9479 82.5938 100.708 82.349C114.797 77.6875 125 70.1406 125 62.4011C125 55.0052 115.38 47.8281 102.099 43.2604V43.2552C100.781 42.8177 99.4635 42.4011 98.1458 42.0104C98.3646 41.1094 98.5625 40.2031 98.7552 39.3021C101.76 24.75 99.7813 13.0625 93.1146 9.20314C86.6927 5.51564 76.2188 9.34898 65.625 18.5781C64.5729 19.4792 63.5521 20.4323 62.5729 21.3854C61.9115 20.75 61.2292 20.1146 60.5469 19.5052C49.4375 9.64064 38.3073 5.4896 31.6406 9.37502C25.2448 13.0886 23.3385 24.099 26.026 37.8594C26.2969 39.2292 26.5885 40.5677 26.9271 41.9375C25.3646 42.375 23.8281 42.8646 22.3854 43.3802C9.34896 47.8959 0 55.0261 0 62.4011C0 70.0209 9.95833 77.6563 23.5104 82.2969ZM56.7135 102.188C52.6875 105.875 48.0208 108.802 42.9427 110.807C40.2344 112.099 37.1094 112.224 34.3229 111.125C30.4427 108.88 28.8281 100.26 31.026 88.6615C31.2969 87.2969 31.5885 85.9271 31.9271 84.5834C37.3958 85.7552 42.9115 86.5625 48.5052 86.974C51.7292 91.5417 55.2656 95.9115 59.0521 100.01C58.2708 100.766 57.4896 101.5 56.7083 102.182L56.7135 102.188ZM87.7187 56.3438C86.5729 54.1927 85.401 52.0469 84.1771 49.9479C82.9792 47.875 81.7344 45.8229 80.4427 43.7969C84.375 44.2865 88.1354 44.9427 91.651 45.75C90.526 49.3646 89.2083 52.8802 87.7187 56.3438ZM87.7656 68.5C89.3281 72.0417 90.6979 75.6302 91.8906 79.3177C88.1042 80.1719 84.276 80.8334 80.4167 81.2709C81.7344 79.2188 82.9792 77.1198 84.2031 75.0209C85.4479 72.8698 86.6198 70.6979 87.7656 68.5ZM84.9427 62.4271C83.3073 65.7969 81.5469 69.1146 79.6719 72.3854C77.8177 75.6302 75.8385 78.7813 73.7656 81.9063C70.1302 82.1771 66.3438 82.2969 62.5104 82.2969C58.6771 82.2969 54.9688 82.1771 51.3802 81.9531C49.2552 78.8542 47.2552 75.6771 45.375 72.4323C43.4948 69.1875 41.7604 65.8906 40.125 62.5209H40.1146C41.724 59.1511 43.4844 55.8542 45.3385 52.6094C47.1927 49.3646 49.1979 46.2136 51.2969 43.1146C54.9583 42.8438 58.6927 42.6979 62.5052 42.6979C66.3177 42.6979 70.0729 42.8438 73.7135 43.1146C75.7865 46.1927 77.7656 49.3386 79.6458 52.5625C81.526 55.7865 83.2813 59.0834 84.9427 62.4271ZM40.7917 49.9948C39.5938 52.0677 38.4219 54.1875 37.3229 56.3386C35.7865 52.7031 34.4896 49.1406 33.4167 45.6979C36.9323 44.9167 40.6667 44.2813 44.5469 43.7917C43.2604 45.8177 41.9896 47.8906 40.7917 49.9948ZM37.3281 68.6927C38.4531 70.8438 39.599 72.9688 40.8177 75.0677C42.0625 77.1927 43.3333 79.3177 44.6771 81.3906C40.8698 80.974 37.0833 80.3646 33.349 79.5573C34.4219 76.0417 35.7656 72.4063 37.3281 68.6927ZM62.6979 96.25C60.2083 93.5677 57.7188 90.5938 55.3021 87.3906C57.6458 87.4896 60.0625 87.5365 62.5052 87.5365C65.0208 87.5365 67.4844 87.4896 69.9271 87.3646C67.6823 90.4636 65.2656 93.4219 62.6979 96.25ZM94.6094 103.583C94.3854 106.557 92.9219 109.339 90.5781 111.219C86.6979 113.464 78.4219 110.536 69.4844 102.87C68.4583 101.99 67.4323 101.036 66.3854 100.063C70.1198 95.9375 73.5625 91.5677 76.6875 86.9792C82.276 86.5156 87.8438 85.6615 93.3385 84.4167C93.5833 85.4167 93.8021 86.4167 94 87.3959C95.1979 92.6719 95.3906 98.1615 94.6094 103.583ZM96.7292 47.0417C98 47.4063 99.2188 47.7969 100.391 48.1875C111.766 52.0938 119.75 57.9063 119.75 62.349C119.75 67.1354 111.229 73.3125 99.0469 77.3386C98.3646 77.5573 97.6823 77.7761 96.974 77.974C95.2656 72.6511 93.1667 67.4531 90.75 62.3958C93.0938 57.4167 95.0729 52.2865 96.7292 47.0417ZM69.0625 22.5313C78.151 14.625 86.6198 11.5261 90.4792 13.7448C94.6042 16.1146 96.1927 25.6823 93.6042 38.2552C93.4323 39.0834 93.2604 39.8906 93.0417 40.6979C87.6198 39.4792 82.1302 38.599 76.6094 38.1094C73.4375 33.5625 69.9688 29.2188 66.2083 25.1406C67.1615 24.2396 68.0885 23.3854 69.0625 22.5313ZM62.5521 28.8802C65.1146 31.6615 67.5313 34.5886 69.776 37.6146C64.9427 37.3959 60.0833 37.3959 55.25 37.6146C57.6406 34.4688 60.1094 31.5417 62.5521 28.8802ZM34.2292 13.9167C38.3333 11.5261 47.4375 14.9427 57.0313 23.4375C57.6406 23.974 58.25 24.5625 58.8854 25.1459C55.099 29.2188 51.6094 33.5625 48.4115 38.1042C42.8958 38.5938 37.4271 39.4479 32.0052 40.6459C31.6875 39.4011 31.4219 38.1302 31.151 36.8594C28.8542 25.0417 30.3698 16.1354 34.2292 13.9167ZM24.099 48.3334C25.4896 47.8438 26.9063 47.4063 28.3229 46.9896C29.9844 52.2865 31.9844 57.4896 34.3021 62.5156C31.9583 67.6198 29.9323 72.8906 28.25 78.2604L28.2448 78.2656C27.2188 77.974 26.2188 77.6563 25.2188 77.3125C20.0208 75.6771 14.1094 73.0886 9.83854 69.6979C7.375 67.9896 5.71354 65.3542 5.25 62.3958C5.25 57.9271 12.9635 52.2136 24.099 48.3334Z" fill="#53C1DE"/>
</svg>
