<svg width="126" height="126" viewBox="0 0 126 126" fill="none" xmlns="http://www.w3.org/2000/svg">
<path d="M125.963 0H0.0369141C0.016527 0 0 0.016527 0 0.0369141V125.963C0 125.983 0.016527 126 0.0369141 126H125.963C125.983 126 126 125.983 126 125.963V0.0369141C126 0.016527 125.983 0 125.963 0Z" fill="#CC6699"/>
<path d="M63.4922 21.6562C39.8672 29.7773 24.6094 46.2656 26.086 56.1094C27.5626 65.9531 42.3282 73.8281 48.9727 78.9961C40.3594 83.4258 29.5313 90.0703 29.7774 98.6836C30.2696 110.496 43.0665 106.805 48.4805 103.359C53.8946 99.9141 59.3087 90.3164 55.8633 80.2266C63.4922 78.2578 70.1368 80.7188 72.1055 82.1953C79.7344 87.6094 75.7969 93.7617 73.0899 94.7461C70.3829 95.7305 72.1055 96.2227 73.8282 95.7305C75.5508 95.2383 79.2422 92.7773 79.2422 88.5938C79.2422 78.0117 67.9219 73.0898 53.8946 76.7813C45.7735 68.168 34.6993 64.2305 35.1915 54.8789C35.4376 51.4336 36.668 42.5742 58.5704 31.5C80.4727 20.4258 95.9766 24.8555 94.0079 34.9453C91.0547 50.2031 64.4766 60.5391 55.1251 51.6797C54.6329 50.6953 52.9102 49.957 53.8946 52.6641C58.8165 64.9688 98.6837 59.3086 100.406 33.2227C100.898 19.4414 80.9649 15.75 63.4922 21.6562ZM42.3282 100.406C36.1758 102.375 36.4219 98.4375 36.668 96.9609C37.4063 92.7773 40.8516 87.6094 51.1876 82.4414C54.1407 91.793 47.4961 98.9297 42.3282 100.406Z" fill="white"/>
</svg>
