<svg width="40" height="41" viewBox="0 0 40 41" fill="none" xmlns="http://www.w3.org/2000/svg">
<ellipse cx="20" cy="20.004" rx="20" ry="20.004" fill="#E2E2E2"/>
<path d="M31 10.0253C30.0424 10.7008 28.9821 11.2174 27.86 11.5553C27.2577 10.8628 26.4573 10.372 25.567 10.1492C24.6767 9.92647 23.7395 9.98251 22.8821 10.3098C22.0247 10.637 21.2884 11.2197 20.773 11.979C20.2575 12.7383 19.9877 13.6377 20 14.5553V15.5553C18.2426 15.6009 16.5013 15.2111 14.931 14.4208C13.3607 13.6304 12.0103 12.464 11 11.0253C11 11.0253 7 20.0253 16 24.0253C13.9405 25.4233 11.4872 26.1242 9 26.0253C18 31.0253 29 26.0253 29 14.5253C28.9991 14.2468 28.9723 13.9689 28.92 13.6953C29.9406 12.6888 30.6608 11.418 31 10.0253V10.0253Z" stroke="#383638" stroke-width="2" stroke-linecap="round" stroke-linejoin="round"/>
</svg>
