<svg width="126" height="126" viewBox="0 0 126 126" fill="none" xmlns="http://www.w3.org/2000/svg">
<g clip-path="url(#clip0_106_241)">
<path d="M8.95558 62.9984C8.95558 84.3918 21.3876 102.878 39.4151 111.64L13.6347 41.0035C10.5442 47.924 8.94973 55.4191 8.95558 62.9984V62.9984ZM99.4858 60.2712C99.4858 53.5918 97.0866 48.9662 95.0288 45.3658C92.2892 40.914 89.7224 37.144 89.7224 32.6921C89.7224 27.724 93.4893 23.0994 98.7968 23.0994C99.0364 23.0994 99.2637 23.1292 99.4981 23.1426C89.8818 14.3335 77.0713 8.95508 63.001 8.95508C44.12 8.95508 27.5086 18.6424 17.8449 33.3153C19.1129 33.3534 20.3089 33.3791 21.3229 33.3791C26.9759 33.3791 35.7263 32.6931 35.7263 32.6931C38.6397 32.5214 38.9832 36.8005 36.0739 37.145C36.0739 37.145 33.1451 37.4895 29.8872 37.6602L49.5683 96.2006L61.3967 60.7288L52.9753 37.6592C50.065 37.4885 47.3079 37.144 47.3079 37.144C44.3956 36.9732 44.737 32.5204 47.6493 32.6921C47.6493 32.6921 56.5746 33.378 61.8852 33.378C67.5372 33.378 76.2887 32.6921 76.2887 32.6921C79.2041 32.5204 79.5466 36.7995 76.6352 37.144C76.6352 37.144 73.7013 37.4885 70.4495 37.6592L89.9805 95.7564L95.3702 77.7423C97.7077 70.267 99.4858 64.8978 99.4858 60.2712V60.2712Z" fill="#00749A"/>
<path d="M63.9491 67.726L47.7336 114.844C52.6911 116.305 57.8327 117.047 63.0009 117.047C69.2946 117.047 75.3302 115.958 80.9482 113.983C80.7975 113.748 80.6688 113.498 80.5636 113.239L63.9491 67.726ZM110.424 37.069C110.656 38.7905 110.788 40.6395 110.788 42.6263C110.788 48.1107 109.763 54.2758 106.678 61.9845L90.1697 109.715C106.237 100.345 117.044 82.9377 117.044 62.9985C117.059 53.9354 114.781 45.0158 110.424 37.069V37.069Z" fill="#00749A"/>
<path d="M63.0015 0C28.2639 0 0.000976562 28.2609 0.000976562 62.9985C0.000976562 97.7402 28.2629 126.001 63.0015 126.001C97.7381 126.001 126.005 97.7412 126.005 62.9985C126.004 28.2609 97.7381 0 63.0015 0ZM63.0015 123.112C29.8569 123.112 2.88969 96.1451 2.88969 62.9985C2.88969 29.8549 29.8558 2.88974 63.0015 2.88974C96.1451 2.88974 123.11 29.8549 123.11 62.9985C123.11 96.1451 96.1441 123.112 63.0015 123.112Z" fill="#00749A"/>
</g>
<defs>
<clipPath id="clip0_106_241">
<rect width="126" height="126" fill="white"/>
</clipPath>
</defs>
</svg>
